<svg xmlns="http://www.w3.org/2000/svg" viewBox="0 0 192 192">
  <rect width="192" height="192" fill="#000"/>
  <!-- Central P-like fingerprint pattern -->
  <g fill="#fff">
    <!-- Outer ring particles -->
    <circle cx="96" cy="50" r="4" opacity="0.9"/>
    <circle cx="130" cy="60" r="3.5" opacity="0.85"/>
    <circle cx="145" cy="85" r="4" opacity="0.9"/>
    <circle cx="145" cy="110" r="3.5" opacity="0.8"/>
    <circle cx="130" cy="135" r="4" opacity="0.85"/>
    <circle cx="96" cy="145" r="3.5" opacity="0.9"/>
    <circle cx="62" cy="135" r="4" opacity="0.85"/>
    <circle cx="47" cy="110" r="3.5" opacity="0.8"/>
    <circle cx="47" cy="85" r="4" opacity="0.9"/>
    <circle cx="62" cy="60" r="3.5" opacity="0.85"/>

    <!-- Middle ring particles -->
    <circle cx="96" cy="65" r="3.5" opacity="0.95"/>
    <circle cx="118" cy="72" r="3" opacity="0.9"/>
    <circle cx="130" cy="96" r="3.5" opacity="0.95"/>
    <circle cx="118" cy="120" r="3" opacity="0.9"/>
    <circle cx="96" cy="127" r="3.5" opacity="0.95"/>
    <circle cx="74" cy="120" r="3" opacity="0.9"/>
    <circle cx="62" cy="96" r="3.5" opacity="0.95"/>
    <circle cx="74" cy="72" r="3" opacity="0.9"/>

    <!-- Inner ring particles -->
    <circle cx="96" cy="80" r="3" opacity="1"/>
    <circle cx="110" cy="88" r="2.5" opacity="0.95"/>
    <circle cx="112" cy="104" r="3" opacity="1"/>
    <circle cx="96" cy="112" r="2.5" opacity="0.95"/>
    <circle cx="80" cy="104" r="3" opacity="1"/>
    <circle cx="80" cy="88" r="2.5" opacity="0.95"/>

    <!-- Center dot -->
    <circle cx="96" cy="96" r="5" opacity="1"/>

    <!-- Scattered background particles -->
    <circle cx="25" cy="30" r="2" opacity="0.4"/>
    <circle cx="165" cy="25" r="2.5" opacity="0.45"/>
    <circle cx="170" cy="165" r="2" opacity="0.4"/>
    <circle cx="25" cy="160" r="2.5" opacity="0.45"/>
    <circle cx="30" cy="96" r="1.5" opacity="0.35"/>
    <circle cx="162" cy="96" r="1.5" opacity="0.35"/>
    <circle cx="96" cy="25" r="1.5" opacity="0.35"/>
    <circle cx="96" cy="167" r="1.5" opacity="0.35"/>
  </g>
</svg>
